<svg width="435" height="485" viewBox="0 0 435 485" fill="none" xmlns="http://www.w3.org/2000/svg">
<path d="M266.93 4.66636L10.9209 114.071C4.88908 116.649 2.08994 123.629 4.667 129.659L143.006 453.374C147.233 463.267 156.915 469.58 167.671 469.459C178.426 469.336 187.964 462.811 191.969 452.827C193.728 448.442 197.091 445.003 201.436 443.146C205.782 441.289 210.59 441.236 214.975 442.995C228.545 448.439 243.063 447.856 255.552 442.519C268.04 437.183 278.496 427.093 283.94 413.524C286.382 407.437 283.427 400.522 277.339 398.078C271.253 395.637 264.338 398.592 261.893 404.679C255.883 419.66 238.802 426.96 223.82 420.949C202.611 412.441 178.432 422.772 169.923 443.984C169.468 445.114 168.619 445.694 167.404 445.707C166.185 445.721 165.326 445.16 164.847 444.04L67.9833 217.377L302.15 117.306L399.014 343.97C399.492 345.089 399.304 346.099 398.452 346.97C397.599 347.842 396.597 348.054 395.464 347.599C374.257 339.091 350.078 349.423 341.567 370.631L336.614 382.977C334.172 389.065 337.127 395.98 343.215 398.423C349.301 400.864 356.216 397.909 358.66 391.823L363.614 379.476C365.373 375.092 368.736 371.653 373.081 369.796C377.426 367.939 382.234 367.886 386.62 369.645C396.604 373.651 407.916 371.269 415.434 363.578C422.954 355.888 425.082 344.527 420.856 334.637L282.517 10.9208C279.941 4.88987 272.962 2.08869 266.93 4.66636ZM58.6497 195.534L31.1767 131.246L265.343 31.1761L292.816 95.4635L58.6497 195.534Z" fill="white"/>
</svg>
