<svg xmlns="http://www.w3.org/2000/svg" xmlns:xlink="http://www.w3.org/1999/xlink"><symbol id="arrow" viewBox="0 0 43 43">
<circle cx="21.5" cy="21.5" r="20.5" stroke="#1946BA" stroke-width="2"/>
<path d="M30.7071 22.7071C31.0976 22.3166 31.0976 21.6834 30.7071 21.2929L24.3431 14.9289C23.9526 14.5384 23.3195 14.5384 22.9289 14.9289C22.5384 15.3195 22.5384 15.9526 22.9289 16.3431L28.5858 22L22.9289 27.6569C22.5384 28.0474 22.5384 28.6805 22.9289 29.0711C23.3195 29.4616 23.9526 29.4616 24.3431 29.0711L30.7071 22.7071ZM12 23H30V21H12V23Z" fill="#1946BA"/>
</symbol><symbol id="icon" viewBox="0 0 435 485">
<path d="M266.93 4.66636L10.9209 114.071C4.88908 116.649 2.08994 123.629 4.667 129.659L143.006 453.374C147.233 463.267 156.915 469.58 167.671 469.459C178.426 469.336 187.964 462.811 191.969 452.827C193.728 448.442 197.091 445.003 201.436 443.146C205.782 441.289 210.59 441.236 214.975 442.995C228.545 448.439 243.063 447.856 255.552 442.519C268.04 437.183 278.496 427.093 283.94 413.524C286.382 407.437 283.427 400.522 277.339 398.078C271.253 395.637 264.338 398.592 261.893 404.679C255.883 419.66 238.802 426.96 223.82 420.949C202.611 412.441 178.432 422.772 169.923 443.984C169.468 445.114 168.619 445.694 167.404 445.707C166.185 445.721 165.326 445.16 164.847 444.04L67.9833 217.377L302.15 117.306L399.014 343.97C399.492 345.089 399.304 346.099 398.452 346.97C397.599 347.842 396.597 348.054 395.464 347.599C374.257 339.091 350.078 349.423 341.567 370.631L336.614 382.977C334.172 389.065 337.127 395.98 343.215 398.423C349.301 400.864 356.216 397.909 358.66 391.823L363.614 379.476C365.373 375.092 368.736 371.653 373.081 369.796C377.426 367.939 382.234 367.886 386.62 369.645C396.604 373.651 407.916 371.269 415.434 363.578C422.954 355.888 425.082 344.527 420.856 334.637L282.517 10.9208C279.941 4.88987 272.962 2.08869 266.93 4.66636ZM58.6497 195.534L31.1767 131.246L265.343 31.1761L292.816 95.4635L58.6497 195.534Z" fill="white"/>
</symbol><symbol id="img"><symbol id="icon" viewBox="0 0 435 485">
<path d="M266.93 4.66636L10.9209 114.071C4.88908 116.649 2.08994 123.629 4.667 129.659L143.006 453.374C147.233 463.267 156.915 469.58 167.671 469.459C178.426 469.336 187.964 462.811 191.969 452.827C193.728 448.442 197.091 445.003 201.436 443.146C205.782 441.289 210.59 441.236 214.975 442.995C228.545 448.439 243.063 447.856 255.552 442.519C268.04 437.183 278.496 427.093 283.94 413.524C286.382 407.437 283.427 400.522 277.339 398.078C271.253 395.637 264.338 398.592 261.893 404.679C255.883 419.66 238.802 426.96 223.82 420.949C202.611 412.441 178.432 422.772 169.923 443.984C169.468 445.114 168.619 445.694 167.404 445.707C166.185 445.721 165.326 445.16 164.847 444.04L67.9833 217.377L302.15 117.306L399.014 343.97C399.492 345.089 399.304 346.099 398.452 346.97C397.599 347.842 396.597 348.054 395.464 347.599C374.257 339.091 350.078 349.423 341.567 370.631L336.614 382.977C334.172 389.065 337.127 395.98 343.215 398.423C349.301 400.864 356.216 397.909 358.66 391.823L363.614 379.476C365.373 375.092 368.736 371.653 373.081 369.796C377.426 367.939 382.234 367.886 386.62 369.645C396.604 373.651 407.916 371.269 415.434 363.578C422.954 355.888 425.082 344.527 420.856 334.637L282.517 10.9208C279.941 4.88987 272.962 2.08869 266.93 4.66636ZM58.6497 195.534L31.1767 131.246L265.343 31.1761L292.816 95.4635L58.6497 195.534Z" fill="white"/>
</symbol><symbol id="percent" viewBox="0 0 86 86">
<path d="M81.5663 33.9379C81.1166 33.2375 80.8925 32.4163 80.9251 31.5844L81.2358 25.8084C81.4098 22.7225 79.737 19.8281 76.977 18.4378L71.862 15.8511C71.122 15.4804 70.5211 14.8802 70.1504 14.1395L67.5636 9.02446C66.1741 6.26448 63.2789 4.59163 60.193 4.7656L54.4171 5.07708C53.5837 5.12114 52.7586 4.89627 52.0635 4.43513L47.2797 1.28467C44.6838 -0.426922 41.3176 -0.426922 38.7225 1.28467L33.9379 4.43513C33.2375 4.88487 32.4163 5.10898 31.5844 5.07708L25.8084 4.7656C22.7225 4.59163 19.8281 6.26448 18.4378 9.02446L15.8511 14.1395C15.4804 14.8802 14.8802 15.4804 14.1395 15.8511L9.02446 18.4378C6.26448 19.8281 4.59163 22.7225 4.7656 25.8084L5.07708 31.5844C5.12342 32.4178 4.89855 33.2436 4.43513 33.9379L1.28467 38.7225C-0.426922 41.3176 -0.426922 44.6838 1.28467 47.2797L4.43513 52.0635C4.88487 52.764 5.10898 53.5852 5.07708 54.4171L4.7656 60.193C4.59163 63.2789 6.26448 66.1741 9.02446 67.5636L14.1395 70.1504C14.8802 70.5211 15.4804 71.122 15.8511 71.862L18.4378 76.977C19.8281 79.737 22.7225 81.4098 25.8084 81.2358L31.5844 80.9251C32.4178 80.8803 33.2428 81.1059 33.9379 81.5663L38.7225 84.7175C41.3176 86.4284 44.6838 86.4284 47.2797 84.7175L52.0635 81.5663C52.764 81.1166 53.5852 80.8925 54.4171 80.9251L60.193 81.2358C63.2789 81.4098 66.1741 79.737 67.5636 76.977L70.1504 71.862C70.5211 71.122 71.122 70.5211 71.862 70.1504L76.977 67.5636C79.737 66.1741 81.4098 63.2789 81.2358 60.193L80.9251 54.4171C80.878 53.5837 81.1029 52.7579 81.5663 52.0635L84.7175 47.2797C86.4284 44.6838 86.4284 41.3176 84.7175 38.7225L81.5663 33.9379ZM81.4691 45.1404L78.3186 49.9242C77.4024 51.3167 76.9595 52.9668 77.0545 54.6305L77.366 60.4073C77.4427 61.9525 76.6047 63.3989 75.2266 64.1024L70.1116 66.6884C68.6241 67.4367 67.4177 68.6439 66.6694 70.1314L64.0827 75.2456C63.383 76.6275 61.9342 77.467 60.3875 77.3849L54.6115 77.0742C52.9486 76.9884 51.3008 77.4305 49.9052 78.3384L45.1404 81.4691C43.8421 82.3252 42.1594 82.3252 40.8618 81.4691L36.0772 78.3186C34.8002 77.4814 33.3066 77.0355 31.7789 77.0355C31.636 77.0324 31.4932 77.0385 31.3512 77.0545L25.5752 77.366C24.03 77.4427 22.5828 76.6047 21.88 75.2266L19.2933 70.1116C18.545 68.6241 17.3386 67.4177 15.8511 66.6694L10.7361 64.0827C9.35416 63.383 8.51546 61.9342 8.59675 60.3875L8.90822 54.6115C8.99407 52.9486 8.55117 51.3008 7.64409 49.9052L4.53237 45.1404C3.6762 43.8421 3.6762 42.1594 4.53237 40.8618L7.68283 36.0772C8.59903 34.6847 9.04193 33.0346 8.94697 31.3709L8.63549 25.5949C8.55952 24.049 9.39671 22.6025 10.7748 21.8998L15.8898 19.313C17.3773 18.5647 18.5845 17.3576 19.332 15.8708L21.9188 10.7558C22.6185 9.37392 24.0672 8.53445 25.6139 8.6165L31.3899 8.92721C33.0529 9.01306 34.7007 8.57092 36.097 7.66308L40.8618 4.53237C42.1594 3.6762 43.8421 3.6762 45.1404 4.53237L49.9242 7.68283C51.3167 8.59903 52.9668 9.04193 54.6305 8.94697L60.4073 8.63549C61.9525 8.55952 63.3989 9.39671 64.1024 10.7748L66.6884 15.8898C67.4367 17.3773 68.6439 18.5845 70.1314 19.332L75.2456 21.9188C76.6275 22.6185 77.467 24.0672 77.3849 25.6139L77.0742 31.3899C76.9884 33.0529 77.4305 34.7007 78.3384 36.097L81.4888 40.8808C82.329 42.1783 82.3214 43.8504 81.4691 45.1404Z" fill="#1946BA"/>
<path d="M35.4345 42.1054C39.119 42.1054 42.1054 39.119 42.1054 35.4345C42.1054 31.7507 39.119 28.7636 35.4345 28.7636C31.7507 28.7636 28.7636 31.7507 28.7636 35.4345C28.7697 39.116 31.753 42.0993 35.4345 42.1054ZM35.4345 32.6343C36.9706 32.6343 38.2157 33.8794 38.2157 35.4155C38.2157 36.9509 36.9706 38.196 35.4345 38.196C33.8984 38.196 32.6533 36.9509 32.6533 35.4155C32.6533 33.8794 33.8984 32.6343 35.4345 32.6343Z" fill="#1946BA"/>
<path d="M50.5654 43.8945C46.8808 43.8945 43.8945 46.8808 43.8945 50.5654C43.8945 54.2491 46.8808 57.2363 50.5654 57.2363C54.2491 57.2363 57.2363 54.2491 57.2363 50.5654C57.2302 46.8839 54.2469 43.9005 50.5654 43.8945ZM50.5654 53.3656C49.0293 53.3656 47.7841 52.1205 47.7841 50.5851C47.7841 49.049 49.0293 47.8039 50.5654 47.8039C52.1015 47.8039 53.3466 49.049 53.3466 50.5851C53.3466 52.1205 52.1015 53.3656 50.5654 53.3656Z" fill="#1946BA"/>
<path d="M55.4859 30.5139C55.122 30.15 54.629 29.9457 54.1147 29.9457C53.6003 29.9457 53.1065 30.15 52.7434 30.5139L31.1559 52.1015C30.792 52.4654 30.5869 52.9584 30.5869 53.4727C30.5869 53.987 30.792 54.4808 31.1559 54.844C31.5205 55.2117 32.0189 55.4153 32.537 55.4077C33.0529 55.4061 33.5482 55.2033 33.9174 54.844L55.5049 33.2564C56.2486 32.4907 56.2395 31.2698 55.4859 30.5139Z" fill="#1946BA"/>
</symbol></symbol><symbol id="percent" viewBox="0 0 86 86">
<path d="M81.5663 33.9379C81.1166 33.2375 80.8925 32.4163 80.9251 31.5844L81.2358 25.8084C81.4098 22.7225 79.737 19.8281 76.977 18.4378L71.862 15.8511C71.122 15.4804 70.5211 14.8802 70.1504 14.1395L67.5636 9.02446C66.1741 6.26448 63.2789 4.59163 60.193 4.7656L54.4171 5.07708C53.5837 5.12114 52.7586 4.89627 52.0635 4.43513L47.2797 1.28467C44.6838 -0.426922 41.3176 -0.426922 38.7225 1.28467L33.9379 4.43513C33.2375 4.88487 32.4163 5.10898 31.5844 5.07708L25.8084 4.7656C22.7225 4.59163 19.8281 6.26448 18.4378 9.02446L15.8511 14.1395C15.4804 14.8802 14.8802 15.4804 14.1395 15.8511L9.02446 18.4378C6.26448 19.8281 4.59163 22.7225 4.7656 25.8084L5.07708 31.5844C5.12342 32.4178 4.89855 33.2436 4.43513 33.9379L1.28467 38.7225C-0.426922 41.3176 -0.426922 44.6838 1.28467 47.2797L4.43513 52.0635C4.88487 52.764 5.10898 53.5852 5.07708 54.4171L4.7656 60.193C4.59163 63.2789 6.26448 66.1741 9.02446 67.5636L14.1395 70.1504C14.8802 70.5211 15.4804 71.122 15.8511 71.862L18.4378 76.977C19.8281 79.737 22.7225 81.4098 25.8084 81.2358L31.5844 80.9251C32.4178 80.8803 33.2428 81.1059 33.9379 81.5663L38.7225 84.7175C41.3176 86.4284 44.6838 86.4284 47.2797 84.7175L52.0635 81.5663C52.764 81.1166 53.5852 80.8925 54.4171 80.9251L60.193 81.2358C63.2789 81.4098 66.1741 79.737 67.5636 76.977L70.1504 71.862C70.5211 71.122 71.122 70.5211 71.862 70.1504L76.977 67.5636C79.737 66.1741 81.4098 63.2789 81.2358 60.193L80.9251 54.4171C80.878 53.5837 81.1029 52.7579 81.5663 52.0635L84.7175 47.2797C86.4284 44.6838 86.4284 41.3176 84.7175 38.7225L81.5663 33.9379ZM81.4691 45.1404L78.3186 49.9242C77.4024 51.3167 76.9595 52.9668 77.0545 54.6305L77.366 60.4073C77.4427 61.9525 76.6047 63.3989 75.2266 64.1024L70.1116 66.6884C68.6241 67.4367 67.4177 68.6439 66.6694 70.1314L64.0827 75.2456C63.383 76.6275 61.9342 77.467 60.3875 77.3849L54.6115 77.0742C52.9486 76.9884 51.3008 77.4305 49.9052 78.3384L45.1404 81.4691C43.8421 82.3252 42.1594 82.3252 40.8618 81.4691L36.0772 78.3186C34.8002 77.4814 33.3066 77.0355 31.7789 77.0355C31.636 77.0324 31.4932 77.0385 31.3512 77.0545L25.5752 77.366C24.03 77.4427 22.5828 76.6047 21.88 75.2266L19.2933 70.1116C18.545 68.6241 17.3386 67.4177 15.8511 66.6694L10.7361 64.0827C9.35416 63.383 8.51546 61.9342 8.59675 60.3875L8.90822 54.6115C8.99407 52.9486 8.55117 51.3008 7.64409 49.9052L4.53237 45.1404C3.6762 43.8421 3.6762 42.1594 4.53237 40.8618L7.68283 36.0772C8.59903 34.6847 9.04193 33.0346 8.94697 31.3709L8.63549 25.5949C8.55952 24.049 9.39671 22.6025 10.7748 21.8998L15.8898 19.313C17.3773 18.5647 18.5845 17.3576 19.332 15.8708L21.9188 10.7558C22.6185 9.37392 24.0672 8.53445 25.6139 8.6165L31.3899 8.92721C33.0529 9.01306 34.7007 8.57092 36.097 7.66308L40.8618 4.53237C42.1594 3.6762 43.8421 3.6762 45.1404 4.53237L49.9242 7.68283C51.3167 8.59903 52.9668 9.04193 54.6305 8.94697L60.4073 8.63549C61.9525 8.55952 63.3989 9.39671 64.1024 10.7748L66.6884 15.8898C67.4367 17.3773 68.6439 18.5845 70.1314 19.332L75.2456 21.9188C76.6275 22.6185 77.467 24.0672 77.3849 25.6139L77.0742 31.3899C76.9884 33.0529 77.4305 34.7007 78.3384 36.097L81.4888 40.8808C82.329 42.1783 82.3214 43.8504 81.4691 45.1404Z" fill="#1946BA"/>
<path d="M35.4345 42.1054C39.119 42.1054 42.1054 39.119 42.1054 35.4345C42.1054 31.7507 39.119 28.7636 35.4345 28.7636C31.7507 28.7636 28.7636 31.7507 28.7636 35.4345C28.7697 39.116 31.753 42.0993 35.4345 42.1054ZM35.4345 32.6343C36.9706 32.6343 38.2157 33.8794 38.2157 35.4155C38.2157 36.9509 36.9706 38.196 35.4345 38.196C33.8984 38.196 32.6533 36.9509 32.6533 35.4155C32.6533 33.8794 33.8984 32.6343 35.4345 32.6343Z" fill="#1946BA"/>
<path d="M50.5654 43.8945C46.8808 43.8945 43.8945 46.8808 43.8945 50.5654C43.8945 54.2491 46.8808 57.2363 50.5654 57.2363C54.2491 57.2363 57.2363 54.2491 57.2363 50.5654C57.2302 46.8839 54.2469 43.9005 50.5654 43.8945ZM50.5654 53.3656C49.0293 53.3656 47.7841 52.1205 47.7841 50.5851C47.7841 49.049 49.0293 47.8039 50.5654 47.8039C52.1015 47.8039 53.3466 49.049 53.3466 50.5851C53.3466 52.1205 52.1015 53.3656 50.5654 53.3656Z" fill="#1946BA"/>
<path d="M55.4859 30.5139C55.122 30.15 54.629 29.9457 54.1147 29.9457C53.6003 29.9457 53.1065 30.15 52.7434 30.5139L31.1559 52.1015C30.792 52.4654 30.5869 52.9584 30.5869 53.4727C30.5869 53.987 30.792 54.4808 31.1559 54.844C31.5205 55.2117 32.0189 55.4153 32.537 55.4077C33.0529 55.4061 33.5482 55.2033 33.9174 54.844L55.5049 33.2564C56.2486 32.4907 56.2395 31.2698 55.4859 30.5139Z" fill="#1946BA"/>
</symbol><symbol id="post" viewBox="0 0 435 485">
  <path d="M266.93 4.66636L10.9209 114.071C4.88908 116.649 2.08994 123.629 4.667 129.659L143.006 453.374C147.233 463.267 156.915 469.58 167.671 469.459C178.426 469.336 187.964 462.811 191.969 452.827C193.728 448.442 197.091 445.003 201.436 443.146C205.782 441.289 210.59 441.236 214.975 442.995C228.545 448.439 243.063 447.856 255.552 442.519C268.04 437.183 278.496 427.093 283.94 413.524C286.382 407.437 283.427 400.522 277.339 398.078C271.253 395.637 264.338 398.592 261.893 404.679C255.883 419.66 238.802 426.96 223.82 420.949C202.611 412.441 178.432 422.772 169.923 443.984C169.468 445.114 168.619 445.694 167.404 445.707C166.185 445.721 165.326 445.16 164.847 444.04L67.9833 217.377L302.15 117.306L399.014 343.97C399.492 345.089 399.304 346.099 398.452 346.97C397.599 347.842 396.597 348.054 395.464 347.599C374.257 339.091 350.078 349.423 341.567 370.631L336.614 382.977C334.172 389.065 337.127 395.98 343.215 398.423C349.301 400.864 356.216 397.909 358.66 391.823L363.614 379.476C365.373 375.092 368.736 371.653 373.081 369.796C377.426 367.939 382.234 367.886 386.62 369.645C396.604 373.651 407.916 371.269 415.434 363.578C422.954 355.888 425.082 344.527 420.856 334.637L282.517 10.9208C279.941 4.88987 272.962 2.08869 266.93 4.66636ZM58.6497 195.534L31.1767 131.246L265.343 31.1761L292.816 95.4635L58.6497 195.534Z" fill="#3b62c4"/>
  <path d="M306.073 218.094L245.637 243.921C239.605 246.499 232.626 243.697 230.049 237.667C227.472 231.637 230.271 224.657 236.303 222.079L296.739 196.252C302.771 193.674 309.75 196.475 312.327 202.506C314.904 208.536 312.105 215.516 306.073 218.094Z" fill="#3b62c4"/>
  <path d="M331.743 278.16L271.306 303.988C265.274 306.566 258.295 303.764 255.718 297.734C253.141 291.704 255.94 284.724 261.972 282.146L322.409 256.319C328.441 253.741 335.42 256.542 337.997 262.573C340.574 268.603 337.775 275.583 331.743 278.16Z" fill="#3b62c4"/>
  <path d="M208.155 277.96C202.934 276.895 194.944 277.043 183.789 278.418L172.032 250.907C175.529 250.359 178.641 251.057 181.447 252.996C183.702 254.592 185.631 256.837 187.177 259.668C188.205 261.546 190.491 262.337 192.459 261.496L204.855 256.199C205.887 255.758 206.696 254.92 207.1 253.873C207.504 252.827 207.469 251.663 207.001 250.643C202.914 241.728 196.685 235.606 188.486 232.447C181.425 229.729 173.217 229.651 164.042 232.209L161.524 226.317C160.622 224.206 158.18 223.226 156.069 224.129L149.29 227.026C147.179 227.928 146.199 230.37 147.101 232.481L149.604 238.337C141.126 242.923 135.402 249.297 132.562 257.327C129.392 266.311 129.565 275.028 133.072 283.235C137.002 292.43 143.034 298.518 150.974 301.321C157.747 303.767 166.449 304.046 176.877 302.16L190.263 333.483C185.347 334.337 181.357 333.515 178.15 331.003C176.445 329.662 173.663 326.579 170.093 319.512C169.104 317.554 166.767 316.702 164.75 317.564L152.233 322.913C150.122 323.816 149.142 326.258 150.044 328.369C153.885 337.358 158.33 343.703 163.614 347.753C172.735 354.817 184.385 356.325 198.284 352.252L202.136 361.265C203.038 363.376 205.48 364.356 207.591 363.454L214.37 360.557C216.481 359.655 217.461 357.212 216.559 355.101L212.65 345.954C219.689 341.601 224.857 337.024 228.048 332.309C234.856 322.188 235.249 310.007 229.227 296.129C224.922 286.056 217.834 279.943 208.155 277.96ZM153.164 273.685C151.853 270.617 151.666 267.232 152.584 263.356C153.169 260.958 154.826 258.792 157.53 256.886L167.882 281.109C164.96 281.294 162.331 281.043 160.039 280.36C156.878 279.385 154.694 277.265 153.164 273.685ZM192.907 299.755C197.01 299.475 199.443 299.708 200.85 300.012C205.258 300.963 208.249 303.602 210.263 308.315C211.585 311.408 212.082 314.336 211.782 317.278C211.361 321.521 209.101 325.001 204.907 327.834L192.908 299.756L192.907 299.756L192.907 299.755Z" fill="#3b62c4"/>
</symbol></svg>