<svg width="435" height="485" viewBox="0 0 435 485" fill="#3b62c4" xmlns="http://www.w3.org/2000/svg">
  <path
    d="M266.93 4.66636L10.9209 114.071C4.88908 116.649 2.08994 123.629 4.667 129.659L143.006 453.374C147.233 463.267 156.915 469.58 167.671 469.459C178.426 469.336 187.964 462.811 191.969 452.827C193.728 448.442 197.091 445.003 201.436 443.146C205.782 441.289 210.59 441.236 214.975 442.995C228.545 448.439 243.063 447.856 255.552 442.519C268.04 437.183 278.496 427.093 283.94 413.524C286.382 407.437 283.427 400.522 277.339 398.078C271.253 395.637 264.338 398.592 261.893 404.679C255.883 419.66 238.802 426.96 223.82 420.949C202.611 412.441 178.432 422.772 169.923 443.984C169.468 445.114 168.619 445.694 167.404 445.707C166.185 445.721 165.326 445.16 164.847 444.04L67.9833 217.377L302.15 117.306L399.014 343.97C399.492 345.089 399.304 346.099 398.452 346.97C397.599 347.842 396.597 348.054 395.464 347.599C374.257 339.091 350.078 349.423 341.567 370.631L336.614 382.977C334.172 389.065 337.127 395.98 343.215 398.423C349.301 400.864 356.216 397.909 358.66 391.823L363.614 379.476C365.373 375.092 368.736 371.653 373.081 369.796C377.426 367.939 382.234 367.886 386.62 369.645C396.604 373.651 407.916 371.269 415.434 363.578C422.954 355.888 425.082 344.527 420.856 334.637L282.517 10.9208C279.941 4.88987 272.962 2.08869 266.93 4.66636ZM58.6497 195.534L31.1767 131.246L265.343 31.1761L292.816 95.4635L58.6497 195.534Z"
    fill="#3b62c4"/>
  <path
    d="M306.073 218.094L245.637 243.921C239.605 246.499 232.626 243.697 230.049 237.667C227.472 231.637 230.271 224.657 236.303 222.079L296.739 196.252C302.771 193.674 309.75 196.475 312.327 202.506C314.904 208.536 312.105 215.516 306.073 218.094Z"
    fill="#3b62c4"/>
  <path
    d="M331.743 278.16L271.306 303.988C265.274 306.566 258.295 303.764 255.718 297.734C253.141 291.704 255.94 284.724 261.972 282.146L322.409 256.319C328.441 253.741 335.42 256.542 337.997 262.573C340.574 268.603 337.775 275.583 331.743 278.16Z"
    fill="#3b62c4"/>
  <path
    d="M208.155 277.96C202.934 276.895 194.944 277.043 183.789 278.418L172.032 250.907C175.529 250.359 178.641 251.057 181.447 252.996C183.702 254.592 185.631 256.837 187.177 259.668C188.205 261.546 190.491 262.337 192.459 261.496L204.855 256.199C205.887 255.758 206.696 254.92 207.1 253.873C207.504 252.827 207.469 251.663 207.001 250.643C202.914 241.728 196.685 235.606 188.486 232.447C181.425 229.729 173.217 229.651 164.042 232.209L161.524 226.317C160.622 224.206 158.18 223.226 156.069 224.129L149.29 227.026C147.179 227.928 146.199 230.37 147.101 232.481L149.604 238.337C141.126 242.923 135.402 249.297 132.562 257.327C129.392 266.311 129.565 275.028 133.072 283.235C137.002 292.43 143.034 298.518 150.974 301.321C157.747 303.767 166.449 304.046 176.877 302.16L190.263 333.483C185.347 334.337 181.357 333.515 178.15 331.003C176.445 329.662 173.663 326.579 170.093 319.512C169.104 317.554 166.767 316.702 164.75 317.564L152.233 322.913C150.122 323.816 149.142 326.258 150.044 328.369C153.885 337.358 158.33 343.703 163.614 347.753C172.735 354.817 184.385 356.325 198.284 352.252L202.136 361.265C203.038 363.376 205.48 364.356 207.591 363.454L214.37 360.557C216.481 359.655 217.461 357.212 216.559 355.101L212.65 345.954C219.689 341.601 224.857 337.024 228.048 332.309C234.856 322.188 235.249 310.007 229.227 296.129C224.922 286.056 217.834 279.943 208.155 277.96ZM153.164 273.685C151.853 270.617 151.666 267.232 152.584 263.356C153.169 260.958 154.826 258.792 157.53 256.886L167.882 281.109C164.96 281.294 162.331 281.043 160.039 280.36C156.878 279.385 154.694 277.265 153.164 273.685ZM192.907 299.755C197.01 299.475 199.443 299.708 200.85 300.012C205.258 300.963 208.249 303.602 210.263 308.315C211.585 311.408 212.082 314.336 211.782 317.278C211.361 321.521 209.101 325.001 204.907 327.834L192.908 299.756L192.907 299.756L192.907 299.755Z"
    fill="#3b62c4"/>
</svg>
